<svg width="27" height="30" viewBox="0 0 27 30" fill="none" xmlns="http://www.w3.org/2000/svg">
<g clip-path="url(#clip0_1398_77712)">
<path d="M11.3245 7.13243C11.8197 7.09678 12.2614 7.15914 12.7777 7.17399C13.7842 7.20296 14.9068 7.08782 15.8827 7.39157C15.9481 7.41192 16.1665 7.55731 16.2442 7.59367C17.2691 8.07353 17.978 8.77387 18.4179 9.82795C18.8785 10.9312 18.9825 12.1339 18.5116 13.2615C18.3674 13.607 18.1225 13.9442 17.9722 14.2981C18.1245 14.4876 18.3585 14.6699 18.5261 14.8631C19.0171 15.4292 19.2792 16.1306 19.3891 16.8613C19.5871 18.1188 19.274 19.4032 18.5193 20.4283C17.8768 21.2958 16.9008 21.7594 15.8518 21.9146C15.5737 22.0654 13.4409 22.0326 13.037 22.0328L9.7679 22.0348L8.20755 22.0376C7.9241 22.0381 7.46779 22.0525 7.20153 22.0075C7.07932 21.8937 7.12272 20.6448 7.12256 20.4235L7.12235 17.4742L7.12314 13.3036C7.12277 11.0935 6.94801 9.20748 9.00207 7.82254C9.91999 7.2036 10.2643 7.26801 11.3245 7.13243ZM10.9634 18.0499C11.3822 18.0239 11.8054 18.0622 12.2178 18.053C13.1699 18.0316 14.2125 18.0868 15.155 18.0345C15.6573 17.7409 15.5993 16.9121 15.1282 16.614L13.9087 16.6094L11.5649 16.617C11.5163 15.8893 11.5577 14.9757 11.5457 14.2298C11.5404 13.9009 11.53 12.9245 11.567 12.6441C12.4705 12.6316 13.382 12.6734 14.2866 12.652C14.4472 12.6482 14.6984 12.6438 14.8128 12.5125C15.1516 12.0832 15.149 11.1387 14.4976 11.0157C13.5609 10.9246 12.5299 11.015 11.5884 10.9758C11.1009 11.0272 10.9792 11.2857 10.9715 11.7431C10.9637 12.2132 10.9692 12.6838 10.9701 13.154L10.9719 16.3746C10.972 16.8487 10.9976 17.6044 10.9634 18.0499Z" fill="#FEFEFE"/>
<path d="M4.31632 12.4044C4.9476 12.377 5.64826 12.4009 6.2835 12.4119C6.55487 12.4166 6.56528 12.4836 6.56404 12.7828C6.56117 13.4616 6.55679 14.1421 6.55687 14.822L6.55693 19.7873L6.55479 21.6253C6.55403 21.9972 6.54588 22.386 6.56679 22.7557C6.57528 22.9062 6.58688 23.0787 6.69485 23.1837C6.72623 23.2143 6.76251 23.2563 6.80778 23.2649C7.16345 23.332 7.56004 23.3163 7.92095 23.3139C8.39925 23.3106 8.86996 23.3069 9.34708 23.3006C9.66232 23.2964 10.0126 23.2529 10.3224 23.2579C10.8649 23.2665 11.422 23.2944 11.9636 23.3201C12.0494 24.3407 11.9519 25.4617 11.9984 26.4913C12.0061 26.6611 12.0087 27.0276 11.9222 27.1708C11.7748 27.2465 10.6943 27.1961 10.4124 27.198C9.54971 27.1729 8.65765 27.2032 7.79139 27.1956C6.74437 27.1866 6.01323 27.3208 5.07609 26.7376C3.57651 25.8044 2.6616 24.4862 2.63587 22.6889C2.62663 22.125 2.63235 21.5414 2.63252 20.9696L2.63274 17.7593L2.63185 14.5755C2.63168 14.2967 2.59598 12.6321 2.69556 12.474C2.88118 12.393 4.01676 12.4165 4.31632 12.4044Z" fill="#FEFEFE"/>
<path d="M14.9969 2.75346C15.7049 2.69925 16.7167 2.75486 17.4371 2.75881C18.1736 2.76287 18.994 2.76846 19.7189 2.80654C20.9694 2.87219 22.1158 3.63594 22.896 4.57783C23.2602 5.01748 23.6667 5.98083 23.7433 6.5502C23.8137 7.07396 23.7862 7.84973 23.7853 8.40381L23.7821 11.6557L23.7837 15.5923C23.7844 16.1237 23.8172 17.1306 23.7743 17.6251C23.5447 17.6512 23.38 17.6441 23.1476 17.6374L19.9357 17.6421C19.9066 17.3605 19.9138 16.9077 19.9121 16.6157L19.908 14.8521L19.9069 9.59899C19.9066 9.03349 19.9893 7.31902 19.7995 6.9002C19.494 6.71821 19.1246 6.63647 18.7688 6.6422C17.6971 6.65939 16.6264 6.68267 15.5542 6.67204C15.2976 6.66951 14.7569 6.72865 14.529 6.64715C14.3038 6.39487 14.4438 3.869 14.3965 3.37219C14.3447 2.82831 14.5183 2.78402 14.9969 2.75346Z" fill="#FEFEFE"/>
<path d="M17.7764 27.2647C17.7399 26.8995 17.7493 26.4305 17.749 26.0567L17.7492 24.2656C17.7494 23.8278 17.7227 22.4321 17.7814 22.0734C17.8701 21.9797 17.9959 21.9965 18.1368 21.9961C19.2031 21.9925 20.3092 21.9878 21.3721 21.9928C21.7919 21.9947 23.3473 21.9571 23.6545 22.044C23.7543 22.1993 23.9911 22.9745 24.0675 23.1913L25.4535 27.2246C25.6701 27.8604 26.3475 29.3883 26.4007 29.9531H26.1864C25.9202 29.8434 25.5689 29.7435 25.2863 29.6618C22.7646 28.9319 20.3204 27.926 17.7764 27.2647Z" fill="#FEFEFE"/>
<path d="M0 0H0.0341674C0.207617 0.0950181 1.47 0.446726 1.76557 0.53465L6.13443 1.8589C6.6608 2.01471 7.92851 2.32997 8.36006 2.53297C8.59241 3.01269 8.52008 3.96114 8.51621 4.51211C8.51046 5.2645 8.51088 6.01697 8.5175 6.76935C8.51905 7.05454 8.50429 7.47713 8.5364 7.74671C8.07551 7.76471 7.61595 7.75248 7.15463 7.75646L4.98353 7.78425C4.33179 7.78921 3.68292 7.81487 3.03096 7.8088C2.64468 7.80521 2.54281 7.61548 2.41408 7.2678C1.74813 5.46906 1.16421 3.63358 0.411486 1.86787C0.323188 1.66093 0.0898203 0.850173 0 0.726983V0Z" fill="#FEFEFE"/>
</g>
<defs>
<clipPath id="clip0_1398_77712">
<rect width="27" height="29.9531" fill="white"/>
</clipPath>
</defs>
</svg>
