<svg width="149" height="54" viewBox="0 0 149 54" fill="none" xmlns="http://www.w3.org/2000/svg">
<g clip-path="url(#clip0_1398_306)">
<path d="M20.3254 12.8193C20.8865 12.6405 22.6854 12.8579 23.3315 12.8646C26.1604 12.8943 28.6306 12.6049 31.0172 14.4679C33.6295 16.5071 34.8333 20.03 33.9047 23.2286C33.7082 23.8898 32.9986 24.9782 32.8293 25.596C33.0474 25.9274 33.8312 26.8324 34.021 27.0852C35.0125 28.4056 35.4308 30.1239 35.4463 31.7532C35.4606 33.2574 34.6643 35.2438 33.8328 36.4983C33.0144 37.7331 30.8677 39.082 29.3593 39.317C26.5314 39.8321 24.1531 39.6865 21.2947 39.6884C18.4859 39.7019 15.6772 39.6937 12.8685 39.6638C12.8065 35.3704 12.8508 31.0056 12.85 26.7049L12.8505 22.6074C12.8528 21.452 12.8193 20.1657 13.0345 19.0409C13.2816 17.7379 13.8579 16.5197 14.7088 15.5021C16.2509 13.6369 18.0164 13.0415 20.3254 12.8193ZM27.7836 32.3674C28.0772 31.5248 28.5478 30.2557 27.3921 29.8212C27.2107 29.753 26.5857 29.7703 26.3641 29.7716C24.6609 29.7766 22.7827 29.743 21.0937 29.8037C20.9698 28.1116 20.9148 24.3918 21.1309 22.7022C22.8349 22.7907 24.7552 22.7702 26.4535 22.667C27.3085 22.6151 27.6112 20.8272 26.9544 20.1363C26.8818 20.0592 26.8064 19.985 26.7281 19.9137C25.6322 19.7147 23.0798 19.668 21.9382 19.7295C21.4559 19.751 20.5555 19.7016 20.2108 20.0796C19.7257 20.6114 19.9377 30.9659 20.004 32.4317C21.2347 32.5118 26.7145 32.5748 27.7836 32.3674Z" fill="#FEFEFE"/>
<path d="M62.8345 12.386C64.6583 12.307 67.9453 12.1886 69.535 13.0302C70.7314 13.6636 72.1691 15.5685 72.4947 16.9134C73.0946 19.3913 72.5641 20.0586 71.5157 21.9796C72.5103 22.8559 73.035 23.3892 73.336 24.7493C74.1643 28.4918 72.2455 31.4077 68.6194 32.2524C67.7127 32.3978 65.2536 32.3373 64.2121 32.335C61.786 32.3468 59.3599 32.3415 56.9339 32.3191C56.7058 29.3106 56.9159 25.7993 56.8536 22.7295C56.8182 20.9862 56.7739 18.7317 56.9307 17.009C57.0108 16.1287 57.5598 15.1027 58.1391 14.4225C59.6092 12.6961 60.7003 12.5545 62.8345 12.386ZM61.947 27.1691C63.3991 27.18 64.8568 27.1953 66.3123 27.1872C67.059 27.183 68.184 26.9636 68.2339 26.0229C68.2601 25.5276 67.9616 25.1821 67.5012 25.0139C66.1242 24.9291 64.0606 25.0893 62.8506 24.9241C62.7683 23.3169 62.8242 21.4955 62.8218 19.8647C63.6144 19.8164 66.8962 20.0072 67.2462 19.4275C68.6518 17.0994 64.9652 17.4165 63.7437 17.4533C63.3384 17.5176 62.3511 17.6059 62.1218 17.9112C61.9088 18.6014 62.0242 20.6988 62.0156 21.5261C61.9961 23.402 62.038 25.2873 61.947 27.1691Z" fill="#FEFEFE"/>
<path d="M27.5959 4.97299C29.1833 4.96963 30.7707 4.97661 32.358 4.99395C35.4224 5.01441 37.4655 4.82332 40.1301 6.71494C41.6466 7.79152 42.6602 9.75624 43.118 11.5475C43.21 11.9074 43.1956 13.729 43.196 14.1797L43.1965 18.4999C43.1951 22.6125 43.2035 26.7386 43.1983 30.8524C43.198 31.0968 43.2111 31.4275 43.0843 31.6067C42.7268 31.7382 42.1644 31.6781 41.757 31.67C39.9561 31.7163 38.0987 31.6346 36.3039 31.7265C35.9106 30.48 36.0648 28.1128 36.0749 26.7085C36.1009 23.7353 36.1117 20.7618 36.1072 17.7885C36.1049 16.6733 36.2308 13.1255 35.7858 12.311C35.5447 12.0711 34.5749 11.9114 34.2422 11.9133C31.6375 11.9273 29.0238 12.058 26.4149 11.96C26.3302 11.6028 26.2372 11.2462 26.2073 10.8795C26.145 10.1174 26.0175 5.60237 26.3687 5.21002C26.5899 4.9629 27.274 4.99117 27.5959 4.97299Z" fill="#FEFEFE"/>
<path d="M6.98458 22.2793C7.7459 22.2435 11.2675 22.1247 11.7629 22.3546C12.0539 22.7708 11.9394 27.5103 11.9376 28.2978L11.945 37.0185C11.9449 37.7993 11.6991 41.3898 12.4486 41.6849C13.9163 42.2628 20.754 41.478 21.6662 42.0072C21.8904 42.412 21.832 47.9525 21.7696 48.7731C21.1154 48.7415 20.4522 48.7616 19.7969 48.7724C18.3519 48.8156 16.8493 48.8125 15.4259 48.7978C12.2554 48.7649 10.211 49.2086 7.64533 46.897C4.53997 44.0991 4.80151 41.689 4.8065 37.9774L4.80538 32.9688C4.80487 31.9924 4.69616 22.7975 4.96008 22.499C5.43246 22.2122 6.40171 22.2831 6.98458 22.2793Z" fill="#FEFEFE"/>
<path d="M79.7423 12.4567C80.7349 12.3627 82.0815 12.4001 83.093 12.4074C84.9204 12.4318 86.7492 12.4314 88.5765 12.4061C88.6034 13.0907 88.6827 16.8989 88.5831 17.4802C87.7257 17.7924 81.4584 17.5368 79.8964 17.6669C79.815 18.1684 79.7576 19.3227 79.7546 19.8321C82.6531 19.7603 85.6584 19.8592 88.5852 19.8033C88.6274 21.4018 88.6587 23.0609 88.5954 24.6583C88.586 24.8937 88.3024 24.9494 88.1053 24.9762C86.827 25.1501 80.5029 24.6949 79.7786 25.1556C79.6521 25.5994 79.767 26.6346 80.0608 27.0076C80.1931 27.1751 81.1319 27.1884 81.3871 27.2003C82.0503 27.2253 88.3846 27.0443 88.5169 27.3489C88.6405 27.6333 88.6958 31.8489 88.5533 32.2183C88.141 32.4063 86.3594 32.3468 85.7682 32.3243C83.7431 32.2471 81.1537 32.5275 79.1984 32.1989C77.2001 31.9794 74.5082 29.17 74.5271 27.0051C74.5569 23.6584 73.6443 17.965 75.4862 15.0569C76.4112 13.5965 78.1796 12.7035 79.7423 12.4567Z" fill="#FEFEFE"/>
<path d="M93.9269 12.3896C94.2091 12.3748 95.0046 12.307 95.0431 12.6759C95.1471 13.6717 95.0977 14.7157 95.0955 15.7207L95.094 23.1367C95.0933 23.6699 94.9929 26.4634 95.1595 26.7107C95.2693 26.8721 95.4285 26.9928 95.6139 27.0542C96.677 27.4026 100.998 26.9774 102.409 27.2582L102.443 27.2652C102.47 28.104 102.59 31.6169 102.34 32.1722C101.884 32.4743 99.2614 32.349 98.548 32.3428C98.199 32.3466 97.8492 32.3463 97.5002 32.3417C95.0984 32.3144 93.3547 32.2186 91.5179 30.465C89.1488 28.2034 89.7392 25.4394 89.7327 22.4319C89.7123 19.11 89.7189 15.788 89.7516 12.4661C91.035 12.3551 92.5955 12.4272 93.9269 12.3896Z" fill="#FEFEFE"/>
<path d="M70.6467 37.1467L70.5025 36.8539L70.5608 36.7852C70.6473 36.7828 70.9642 36.791 71.0032 36.7474C71.4059 36.2969 71.4746 35.2776 72.2302 35.2115C72.4647 35.1909 72.7478 35.233 72.9564 35.3619C73.171 35.618 73.1426 36.0405 73.1353 36.3722C72.9717 36.5388 72.5966 36.8106 72.5836 36.9633C72.9913 37.0986 73.44 36.8709 73.6989 36.9C74.3737 36.9758 76.8576 36.8381 77.3507 36.9418L77.3877 37.115C77.5833 37.1041 77.7375 36.9195 77.7855 36.9181C79.0697 36.8801 80.3771 36.9562 81.6605 36.9357C82.2357 36.9264 82.8407 36.6429 83.2581 36.9072L83.7278 36.8593L83.7562 36.9169L83.6151 37.0798C83.3766 37.2448 83.3272 37.2824 83.2399 37.5587C83.0712 37.7138 82.9498 37.9536 82.9025 37.9832C82.744 37.6477 82.7244 37.4784 82.6589 37.1163C81.7042 37.221 78.5737 36.9945 78.0727 37.3166C77.9346 37.5041 77.8946 37.7731 78.0022 37.9834C78.3265 38.1442 79.1358 38.0707 79.5089 38.0548C79.9837 38.9855 79.0144 41.7855 80.1488 41.9158L80.6512 41.8567C80.8156 41.8216 80.8446 41.8106 80.993 41.7329C81.0504 41.1341 81.1922 39.1995 81.1268 38.6633L80.7952 38.4336C80.7763 38.2918 80.7807 38.2759 80.8527 38.1521C81.2417 38.0329 82.0336 38.0544 82.4815 38.0445C82.9047 38.3248 82.8538 38.2208 83.005 38.7052C83.2115 39.3651 82.8327 41.403 83.1519 41.8039C83.2995 41.8364 83.3773 41.786 83.5133 41.7268L83.9074 41.8616C84.3786 41.9981 84.1569 42.0045 84.607 41.8196L84.7015 41.9174L84.6906 42.0635C84.4608 42.132 83.1585 42.0848 82.8232 42.0808C82.8262 41.6701 82.8036 38.6559 82.6764 38.5241C82.4146 38.407 81.9463 38.4488 81.6562 38.4772C81.6038 38.4823 81.4416 38.5127 81.4053 38.5493C81.193 38.7621 81.5354 41.6242 81.2468 41.9875C80.9624 42.1261 79.7845 42.1213 79.6187 42.0748C79.0195 41.9066 79.7299 39.1045 79.2798 38.5127C78.8842 38.4265 78.2967 38.5453 77.8822 38.5378C77.8117 38.6434 77.7404 38.7491 77.6692 38.8549C77.5484 38.9111 77.4285 38.9674 77.3078 39.0237C78.1578 39.4995 77.8459 40.7762 77.5812 41.5519C77.5317 41.6973 77.2387 41.9643 77.1151 42.0808C76.3981 42.0856 73.6974 42.1677 73.1491 41.9849C72.8656 41.7461 72.8139 41.502 72.6494 41.1579L72.7441 40.8338C73.0539 41.3992 73.1666 42.0609 73.9657 41.6946C74.3875 41.8326 76.0905 41.7696 76.641 41.7619C77.7964 40.8582 77.795 40.3377 76.9813 39.1633C77.1274 38.8336 77.1943 38.8164 77.4117 38.5477C77.2881 38.5269 77.1645 38.5032 77.0416 38.4764L77.1594 38.4061L77.443 38.2886L77.5092 38.1247C77.4772 37.8463 77.1667 37.4814 76.9878 37.2378C76.3275 37.129 74.3882 37.0447 73.7272 37.2762C73.4349 37.3788 73.3149 37.5306 73.1942 37.8028L72.9659 37.6863L72.8205 37.741C72.6326 38.1949 72.703 39.1715 72.7303 39.6889C72.9165 39.6773 72.9906 39.6753 73.1768 39.6937L73.2568 39.8063C73.0015 39.9786 72.8008 39.6715 72.6944 39.9972L72.5931 39.9823L72.2931 39.666C72.2394 39.1894 72.2363 38.4546 72.2192 37.958C72.276 37.9225 72.342 37.8586 72.3942 37.8126C72.4373 37.537 72.4954 37.5087 72.3759 37.3409L72.1998 37.5209C72.1265 37.2373 72.1761 37.2338 71.9898 37.0867C71.7674 37.0656 71.63 37.0346 71.4244 37.1172C71.2121 37.7131 71.3194 40.9329 71.4215 41.6065C71.5554 41.7885 71.5553 41.7471 71.7915 41.8509L71.7505 42.0159C71.5477 42.1149 67.9035 42.0726 67.2257 42.0808C66.8709 41.7144 66.2511 41.0748 65.7622 40.9467C65.5644 41.0157 64.9766 41.7918 64.669 42.0478C63.7198 42.1032 62.5651 42.1484 61.6216 42.0369C61.4477 42.0164 61.17 41.3518 61.1336 41.1814L61.0711 41.1602C60.9389 41.4238 61.1799 41.7379 61.0351 42.0645C59.9226 42.1362 58.2027 42.083 57.0455 42.0808L56.4274 41.4616C56.4298 40.3044 56.4397 39.1465 56.3941 37.99C56.3799 37.6292 56.3412 37.2626 56.399 36.9044L56.869 36.85C57.0249 36.9591 56.9799 36.9555 57.0331 37.1987C56.6923 38.0419 56.4643 41.3471 57.5947 41.6889C58.1586 41.8595 59.1482 41.7774 59.7445 41.6808C61.2498 42.1624 60.6275 41.3889 61.2222 40.7927C61.8296 41.6934 62.9754 42.0607 63.9936 41.6811C64.2364 41.8048 64.3572 41.9233 64.6099 41.8201C64.7013 41.6484 64.6548 41.5267 64.6159 41.3339C65.5935 40.5735 65.8131 39.1853 65.1178 38.1606C64.4226 37.1358 63.051 36.826 61.9825 37.4524C60.9139 38.0788 60.5149 39.4265 61.0705 40.5332C60.5704 41.0811 58.8187 40.5607 58.3972 40.9548C58.0861 40.9335 57.7257 41.0062 57.695 40.6563C57.5831 39.3801 57.9041 38.3673 57.1994 37.2177L57.2451 36.9668C57.4084 36.895 57.4866 36.9045 57.6603 36.9034C58.5785 37.465 56.7634 40.8694 59.3207 40.7151C59.7101 40.6915 60.1481 40.7715 60.5205 40.5635L60.5195 40.4964L60.2293 40.3162C60.0761 39.1754 60.7144 37.7057 61.6238 37.0011L61.7048 37.132C61.9107 37.0649 62.1252 36.896 62.2171 36.8878C62.8666 36.8294 64.1428 36.8547 64.7372 37.0349C64.9234 37.0913 65.5443 37.9119 65.6672 38.0891C65.6756 38.281 65.6785 38.4254 65.7146 38.6153L65.8427 38.659C65.7355 38.2352 66.4109 37.2378 66.7723 37.0728L66.8764 37.1152L67.0319 37.5164C66.4066 38.146 66.0562 38.564 66.0634 39.4496C66.0825 41.8324 68.015 41.7939 69.806 41.7422C70.0658 41.7347 70.6553 41.8355 70.9467 41.8703C70.9822 40.9733 70.9437 40.1771 70.9041 39.2835C70.3297 39.2342 68.7689 39.1153 68.3292 39.5005C68.1502 39.5832 68.1203 39.645 68.0274 39.8101C67.9516 39.5941 67.9614 39.0487 68.0603 38.8204C68.459 38.5668 69.6501 39.0297 70.6182 38.6317L70.6658 38.6116L70.629 38.5131C69.6464 38.5071 68.6637 38.5096 67.6811 38.5208C67.5791 38.8613 67.4862 39.1469 67.3026 39.4636C67.2509 39.5529 68.0044 40.5435 68.0936 40.6336L68.2722 40.6751C68.5961 40.7199 69.3177 40.6925 69.6345 40.6132L69.9091 40.7345C69.7677 41.3517 68.0455 40.9528 67.621 40.8182C66.7182 39.9915 66.8191 39.1551 67.4839 38.234C68.5625 37.9399 69.9364 38.2734 70.8196 37.9182C70.9842 37.7332 70.9384 37.8131 70.9922 37.5783C70.9345 37.3926 70.7985 37.2578 70.6467 37.1467ZM71.9159 36.1015L71.83 36.3122L71.8845 36.4042C72.0804 36.4085 72.105 36.406 72.2853 36.331C72.4413 36.3784 72.5399 36.4282 72.6902 36.3616C72.9368 35.9554 73.0473 35.5035 72.4815 35.3434C72.0316 35.4221 71.833 35.6753 71.9159 36.1015Z" fill="#FCFAFC" fill-opacity="0.0117647"/>
<path d="M71.9159 36.1016C72.1345 36.0017 72.2284 35.9124 72.4356 35.9485C72.4358 36.1188 72.3742 36.1896 72.2853 36.3311C72.105 36.406 72.0804 36.4085 71.8846 36.4043L71.83 36.3122L71.9159 36.1016Z" fill="#FEFEFE" fill-opacity="0.807843"/>
<path d="M61.0705 40.5332C60.5149 39.4265 60.9139 38.0788 61.9825 37.4524C63.051 36.826 64.4226 37.1358 65.1178 38.1606C65.8131 39.1854 65.5935 40.5735 64.6159 41.334C64.4273 41.4806 64.2175 41.5977 63.9936 41.6811C62.9754 42.0607 61.8296 41.6934 61.2222 40.7927C61.1662 40.7095 61.1155 40.6229 61.0705 40.5332ZM61.6761 39.5366C61.6819 40.0025 61.9067 40.4383 62.2829 40.7135C62.659 40.9886 63.1426 41.0709 63.5886 40.9358C64.2833 40.7254 64.7233 40.0431 64.6283 39.3239C64.5917 39.0466 64.4774 38.7854 64.2985 38.5704C64.1274 38.3648 63.9039 38.2092 63.6516 38.1203C63.3451 38.0123 63.0116 38.0078 62.7024 38.1078C62.0838 38.3076 61.6677 38.887 61.6761 39.5366Z" fill="#FCFAFC"/>
<path d="M112.175 37.1704C112.901 37.1602 113.631 37.1443 114.357 37.145C114.813 37.1455 115.529 37.0757 115.748 37.5435C115.708 37.7725 115.705 37.8066 115.543 37.9706C114.999 38.1772 112.697 38.0757 111.951 38.0806L111.737 38.776C112.486 38.8382 114.247 38.7103 114.743 38.8991C114.924 39.138 114.863 39.3165 114.715 39.5318C114.166 39.8793 112.527 39.7653 111.82 39.7617C111.83 40.1538 111.867 40.5493 111.899 40.9407C112.697 41.027 115.063 40.9184 115.54 41.1192C115.7 41.2948 115.672 41.2146 115.685 41.4387C115.616 41.5378 115.492 41.7275 115.337 41.7155C114.268 41.6321 112.278 42.1522 111.393 41.5446C110.806 41.0283 110.823 39.8546 110.835 39.157C110.854 38.0359 110.952 37.2759 112.175 37.1704Z" fill="#FEFEFE"/>
<path d="M129.616 37.1706C130.543 37.1168 131.588 37.1938 132.584 37.1414C132.624 37.39 132.695 37.7005 132.652 37.9418C132.101 38.2959 129.601 37.8837 128.907 38.1925C128.793 38.2433 128.802 38.3965 128.783 38.5338C129.23 39.1791 131.242 38.5517 131.685 38.9533C131.765 39.1702 131.806 39.2383 131.734 39.4537C131.342 39.9842 129.658 39.6477 128.857 39.8017C128.749 39.9744 128.801 40.2392 128.809 40.4769L128.876 40.7325C129.282 41.3149 131.612 40.7676 132.479 41.1105C132.641 41.2733 132.604 41.19 132.615 41.4239C132.49 41.5994 132.323 41.7369 132.093 41.7415C130.715 41.7688 129.23 42.108 128.039 41.2983C127.7 40.0477 127.754 38.9907 128.006 37.7458C128.16 37.5666 128.37 37.3827 128.546 37.22C128.89 37.1954 129.268 37.1863 129.616 37.1706Z" fill="#FEFEFE"/>
<path d="M73.1942 37.8028C73.3149 37.5305 73.4349 37.3787 73.7272 37.2762C74.3882 37.0446 76.3275 37.129 76.9878 37.2378C77.1667 37.4813 77.4772 37.8463 77.5092 38.1247L77.443 38.2885L77.1594 38.406C76.6002 38.1616 74.3955 37.8436 73.9919 38.2886C73.6989 39.2774 76.1807 38.4404 76.9813 39.1633C77.795 40.3376 77.7964 40.8582 76.6409 41.7619C76.0905 41.7695 74.3875 41.8326 73.9657 41.6946C73.5505 41.3941 73.1251 41.1503 73.2866 40.5383C73.6843 40.2203 73.9614 40.605 74.2319 40.895C74.7372 40.9706 75.8709 41.1241 76.3094 40.9153C76.5966 40.6263 76.638 40.2846 76.4104 39.9536C75.391 39.3008 72.6828 40.7006 73.1942 37.8028Z" fill="#FEFEFE"/>
<path d="M70.6467 37.1466C70.7985 37.2577 70.9345 37.3925 70.9922 37.5783C70.9384 37.813 70.9842 37.7332 70.8196 37.9181C69.9364 38.2734 68.5625 37.9399 67.4839 38.2339C66.8191 39.155 66.7182 39.9914 67.621 40.8181C68.0455 40.9527 69.7677 41.3517 69.9092 40.7344C69.8382 39.4119 68.9545 40.6548 68.3292 39.5004C68.7689 39.1152 70.3297 39.2341 70.9041 39.2834C70.9438 40.177 70.9822 40.9732 70.9467 41.8702C70.6553 41.8354 70.0658 41.7347 69.806 41.7422C68.0151 41.7938 66.0825 41.8323 66.0634 39.4495C66.0562 38.5639 66.4066 38.146 67.0319 37.5163C67.9677 36.9865 69.5032 37.1706 70.6467 37.1466Z" fill="#FEFEFE"/>
<path d="M124.929 37.1703C125.669 37.1918 126.322 37.2025 127.061 37.1806C127.045 37.4825 127.064 37.6711 127.092 37.9668C126.115 38.1475 125.086 38.0121 123.999 38.2119C121.906 40.1481 125.439 42.0213 126.28 40.657C126.233 39.9345 125.249 40.172 124.846 39.5355C125.014 39.3423 124.993 39.3939 125.271 39.3035C125.911 39.2892 126.551 39.2661 127.191 39.2344C127.161 39.9058 127.405 41.3007 127.064 41.7157C126.857 41.7672 125.3 41.6356 124.804 41.6868C122.67 41.907 121.736 39.304 123.187 37.862C123.803 37.2499 124.057 37.1978 124.929 37.1703Z" fill="#FEFEFE"/>
<path d="M104.249 37.0671C104.379 37.0648 104.512 37.0732 104.643 37.0791C105.002 37.4935 104.848 40.9978 104.821 41.7421C103.954 41.2825 101.64 39.553 101.029 38.8654C100.968 39.7205 101.009 40.9451 100.869 41.8078C100.799 41.8787 100.74 41.9388 100.691 41.9881C100.434 41.9245 100.466 41.9698 100.292 41.808C99.9187 40.948 100.124 38.0397 100.299 37.0659C100.826 37.7769 103.213 39.6342 103.994 40.0052C103.994 39.3405 103.951 37.5586 104.249 37.0671Z" fill="#FEFEFE"/>
<path d="M137.386 37.0295C137.487 37.0306 137.778 37.0372 137.806 37.1024C138.156 37.9301 137.968 40.8608 137.935 41.6884C137.155 41.2926 134.812 39.5257 134.171 38.8688C134.136 39.6212 134.242 41.4995 133.775 41.9706C133.643 41.9332 133.443 41.8688 133.423 41.7191C133.3 40.8179 133.116 38.057 133.44 37.3102L133.548 37.2728C134.694 38.1692 135.975 39.2104 137.147 40.0508C137.204 39.3135 137.103 37.5292 137.386 37.0295Z" fill="#FEFEFE"/>
<path d="M86.8997 37.1661C87.4727 37.1278 88.8514 37.0071 89.2288 37.42C89.2455 37.6071 89.2826 37.7701 89.1859 37.927C88.7481 38.1608 87.0618 38.0811 86.3238 38.1611C85.0549 38.9694 85.3399 39.9439 86.2649 40.8386C86.9353 40.9968 87.3643 40.9881 88.0522 41.0007C88.4725 41.016 88.9001 40.9481 89.1604 41.3146L89.119 41.4577C88.6907 41.7576 88.402 41.6778 87.8944 41.7684C85.3785 42.2177 83.6878 40.0311 85.2425 37.8823C85.5901 37.4025 86.2583 37.2062 86.8997 37.1661Z" fill="#FEFEFE"/>
<path d="M139.233 37.1704C140.585 37.1221 142.215 37.227 143.457 37.1376C143.459 37.2373 143.462 37.3369 143.462 37.4366C143.465 38.3684 142.271 38.099 141.577 38.0841C141.577 38.9032 141.572 39.7225 141.562 40.5416C141.555 40.9519 141.637 41.6923 141.255 41.8804C140.438 41.7309 140.629 38.8781 140.6 38.1044C140.002 38.0518 139.221 38.2316 138.851 37.8758C138.753 37.6607 138.78 37.5985 138.837 37.3634C139.009 37.1719 138.945 37.228 139.233 37.1704Z" fill="#FEFEFE"/>
<path d="M92.2145 37.3835C92.4792 37.461 92.7024 37.7757 92.8006 38.0013C93.1082 38.7099 94.6585 41.2393 94.4709 41.9067L94.2731 41.9507C93.3227 41.5253 92.9438 40.1798 92.4232 39.3608C92.4094 39.3422 92.3207 39.2921 92.2945 39.2762C91.9244 39.5493 91.0743 42.1216 90.3326 41.851C90.0141 41.3782 90.5864 40.3639 90.8511 39.9329C91.3317 39.1484 91.7179 38.1287 92.2145 37.3835Z" fill="#FEFEFE"/>
<path d="M79.5089 38.0548C79.1358 38.0707 78.3265 38.1442 78.0022 37.9834C77.8946 37.7731 77.9346 37.5041 78.0727 37.3166C78.5737 36.9945 81.7042 37.221 82.6589 37.1163C82.7244 37.4784 82.744 37.6477 82.9025 37.9832L82.4815 38.0445C82.0336 38.0544 81.2417 38.033 80.8527 38.1521C80.7807 38.2759 80.7763 38.2918 80.7952 38.4336C80.7821 39.5708 80.7974 40.7303 80.6512 41.8567L80.1488 41.9158C79.8463 40.6668 80.087 39.4379 79.9364 38.1994C79.7976 38.0353 79.7932 38.0862 79.5089 38.0548Z" fill="#FEFEFE"/>
<path d="M105.803 37.1677C107.089 37.1424 109.035 37.082 110.287 37.2153L110.276 38.0306C109.706 38.1019 108.864 38.0839 108.266 38.0877C108.308 38.5619 108.284 39.4787 108.283 39.9866C108.298 40.4232 108.434 41.7055 107.898 41.7792C107.25 41.3347 107.683 39.1772 107.384 38.4244C107.119 37.7585 106.414 38.2804 105.652 37.9447C105.375 37.6216 105.519 37.4432 105.803 37.1677Z" fill="#FCFAFC"/>
<path d="M116.683 37.0799L116.973 37.0648C117.64 37.3899 116.928 40.1246 117.275 40.7111C117.628 41.3086 119.836 40.6625 120.148 41.2954C120.098 41.4914 120.01 41.5519 119.864 41.6914C119.012 41.7444 118.242 41.7848 117.389 41.7919C117.085 41.6195 116.837 41.4572 116.546 41.2633C116.244 40.2345 116.285 38.5956 116.344 37.4993C116.358 37.2565 116.507 37.2004 116.683 37.0799Z" fill="#FCFAFC"/>
<path d="M57.0331 37.1986L57.1994 37.2177C57.9041 38.3672 57.5831 39.3801 57.695 40.6562C57.7257 41.0062 58.0861 40.9334 58.3972 40.9547C58.8894 40.9766 60.0997 40.9873 60.4586 41.2966L60.469 41.4149C60.2766 41.6119 60.0182 41.6297 59.7445 41.6808C59.1482 41.7773 58.1586 41.8594 57.5947 41.6888C56.4643 41.347 56.6923 38.0418 57.0331 37.1986Z" fill="#FEFEFE"/>
<path d="M71.7915 41.8509C71.5553 41.7471 71.5554 41.7886 71.4215 41.6066C71.3194 40.9329 71.2121 37.7131 71.4244 37.1172C71.63 37.0347 71.7674 37.0656 71.9898 37.0867C72.1761 37.2338 72.1265 37.2373 72.1998 37.5209L72.2192 37.9581C72.2363 38.4546 72.2394 39.1894 72.2931 39.6661C72.2819 40.2264 72.3345 41.5846 71.7915 41.8509Z" fill="#FEFEFE"/>
<path d="M98.8564 37.0127L99.1181 37.0821C99.5108 37.4324 99.473 41.6005 99.2061 41.9923C98.988 41.9584 98.9371 41.9569 98.7466 41.8474C98.4179 41.3739 98.4208 37.4898 98.8564 37.0127Z" fill="#FEFEFE"/>
<path d="M83.6151 37.0798C83.8776 37.1361 83.9307 37.1025 84.1002 37.2689C84.1576 37.9914 84.2681 41.4664 83.9075 41.8616L83.5133 41.7268C83.2312 40.7964 83.3534 38.7099 83.2399 37.5586C83.3272 37.2824 83.3766 37.2448 83.6151 37.0798Z" fill="#FEFEFE"/>
<path d="M120.967 37.1737C121.146 37.1862 121.377 37.1768 121.499 37.2979C121.853 38.0795 121.776 40.9387 121.515 41.7355C121.363 41.7727 121.255 41.7806 121.102 41.7952L120.999 41.707C120.79 41.0687 120.915 37.9977 120.967 37.1737Z" fill="#FEFEFE"/>
<path d="M72.5931 39.9822L72.6944 39.9971C72.7112 40.269 72.7347 40.5638 72.7441 40.8338L72.6494 41.1578C72.5001 40.8801 72.5651 40.2905 72.5931 39.9822Z" fill="#070607" fill-opacity="0.329412"/>
<path d="M68.2722 40.6751C68.5684 40.4577 69.2938 40.5104 69.6345 40.6133C69.3177 40.6925 68.5961 40.72 68.2722 40.6751Z" fill="#070607" fill-opacity="0.137255"/>
<path d="M122.181 39.7269L122.269 39.8004C122.369 40.0547 122.319 40.3715 122.3 40.6502L122.195 40.5448C122.104 40.2613 122.151 40.0211 122.181 39.7269Z" fill="#070607" fill-opacity="0.494118"/>
<path d="M125.794 40.5298L125.86 40.583C125.704 40.689 125.246 40.6846 125.018 40.7014L124.97 40.6089C125.148 40.4937 125.561 40.5292 125.794 40.5298Z" fill="#070607" fill-opacity="0.666667"/>
<path d="M122.263 38.5709C122.326 38.7989 122.344 38.8465 122.269 39.0663L122.184 39.0368C122.12 38.8092 122.159 38.8402 122.263 38.5709Z" fill="#070607" fill-opacity="0.490196"/>
<path d="M104.423 12.437C105.195 12.4132 109.102 12.256 109.551 12.5704C109.868 13.261 109.477 24.7148 109.714 26.0907C109.748 26.2885 109.88 26.7854 110.047 26.8517C111.179 27.2988 114.76 27.1074 115.817 26.9068C115.816 24.4701 115.379 22.0752 116.099 19.6556C116.95 16.9183 119.634 15.4415 122.377 15.4495C127.244 15.4637 130.027 14.7309 132.54 19.8443C133.186 17.7968 134.925 16.0826 137.078 15.6002C138.222 15.3439 140.111 15.472 141.355 15.4734L148.922 15.4865V25.5068C147.74 27.3214 146.992 28.4119 144.729 28.8902C142.775 29.3033 140.99 28.9834 139.035 29.148C138.857 29.1631 138.796 29.234 138.697 29.3664C138.789 30.1486 142.148 29.766 142.762 29.7909C144.408 29.8578 145.833 30.0231 147.191 31.0648C148.334 31.8195 148.24 32.6203 148.922 33.2429V35.5572C147.477 35.5524 145.804 35.6085 144.372 35.4902C144.002 35.4595 143.539 34.8547 143.068 34.8328C141.453 34.7577 139.852 34.9025 138.224 34.8714C136.374 34.8743 134.91 34.5075 133.545 33.2078C131.906 31.6477 132.222 28.7555 133.8 27.2481C133.544 26.7882 133.281 26.2868 132.97 25.8657L132.861 25.6405L132.77 25.613C132.682 25.8743 132.712 26.1508 132.723 26.4277L132.722 26.4533C132.58 28.2214 131.747 29.8626 130.403 31.0208C128.467 32.6829 126.592 32.3087 124.277 32.3416C121.244 32.3848 119.262 32.5622 117.07 30.0064C117.155 30.5322 117.276 31.7131 117.091 32.1861C116.675 32.4972 111.344 32.2909 110.395 32.3395C107.863 32.4693 104.905 30.2378 104.536 27.6388C104.25 25.6241 104.365 23.4591 104.366 21.4172C104.367 18.4336 104.295 15.4128 104.423 12.437ZM121.157 21.1134C121.144 23.0694 121.009 24.8992 121.244 26.8426C123.235 27.2441 124.572 27.1459 126.614 27.0212C127.269 26.8076 127.3 26.4025 127.364 25.7531C127.423 25.1541 127.516 20.9852 126.97 20.8885C125.536 20.6343 123.347 20.7375 121.857 20.7904L121.157 21.1134ZM142.396 24.0978C144.049 24.0424 143.975 23.6266 143.918 22.0619C143.908 21.7865 143.9 21.4959 143.882 21.2174L143.871 21.0561C142.074 20.5965 140.981 20.6339 139.115 20.7438C138.465 20.7745 138.521 20.7313 138.002 21.109C137.454 21.5085 137.541 23.669 137.961 23.91C138.53 24.2376 141.758 24.2177 142.396 24.0978Z" fill="#FEFEFE"/>
<path d="M0 0H0.349601C0.792122 0.362406 2.37025 0.702207 3.0132 0.883543L6.75313 1.97828C9.31772 2.74598 12.3207 3.76847 14.8888 4.36015C15.8062 5.51541 15.5689 6.69282 15.5626 8.09985L15.5562 11.656C15.5547 14.666 15.7845 13.9021 13.0461 13.945L7.49154 14.0361C7.18226 14.0383 5.20689 14.075 5.07861 13.9832C4.24108 13.3844 3.65622 10.9512 3.30122 10.0632C2.21178 7.33789 1.25728 4.7143 0.252169 1.97467C0.197034 1.82439 0.128415 1.73059 0 1.63814V0Z" fill="#FEFEFE"/>
<path d="M32.3182 39.5924C33.3679 39.5845 42.7766 39.5089 42.9303 39.652C43.3258 40.02 44.326 43.3994 44.5761 44.0901C45.0878 45.5024 48.0068 53.151 47.9649 53.9259C47.9636 53.9507 47.9607 53.9754 47.958 54H47.5852C47.0146 53.3339 44.8626 52.9656 43.9174 52.6553L35.4796 49.8704C34.4924 49.5518 33.1553 49.346 32.3318 48.8318C32.2252 47.6513 32.2696 45.6823 32.2752 44.4496C32.2818 42.9865 32.2239 41.0268 32.3182 39.5924Z" fill="#FEFEFE"/>
<path d="M148.922 41.6942C148.065 41.8607 145.113 42.1065 144.419 41.4331C143.909 40.9395 143.835 37.6962 144.572 37.3632C145.436 36.9733 147.899 37.1045 148.922 37.2154V38.0017C147.863 38.1711 145.449 37.8079 145.009 38.4135C144.972 38.6349 144.955 38.5555 145.049 38.7275C146.054 39.0482 147.605 38.445 148.046 39.0836C148.03 39.6347 147.676 39.7536 147.159 39.7701C146.445 39.793 145.717 39.7645 145.002 39.7557C145.045 40.1806 145.068 40.5263 145.079 40.9529C146.363 41.0568 147.657 40.9467 148.922 41.0764V41.6942Z" fill="#FEFEFE"/>
<path d="M132.723 26.4277C132.712 26.1509 132.682 25.8743 132.77 25.613L132.861 25.6405L132.97 25.8657C132.788 26.0295 132.775 26.1896 132.723 26.4277Z" fill="#FEFEFE" fill-opacity="0.0431373"/>
</g>
<defs>
<clipPath id="clip0_1398_306">
<rect width="148.922" height="54" fill="white"/>
</clipPath>
</defs>
</svg>
