<svg width="24" height="24" viewBox="0 0 24 24" xmlns="http://www.w3.org/2000/svg">
<path d="M2 18C1.45 18 0.979167 17.8042 0.5875 17.4125C0.195833 17.0208 0 16.55 0 16V2C0 1.45 0.195833 0.979167 0.5875 0.5875C0.979167 0.195833 1.45 0 2 0H16C16.55 0 17.0208 0.195833 17.4125 0.5875C17.8042 0.979167 18 1.45 18 2V9.1C17.8333 9.06667 17.6708 9.04167 17.5125 9.025C17.3542 9.00833 17.1833 9 17 9H16V2H2V16H5.1C5.16667 16.3667 5.25417 16.7167 5.3625 17.05C5.47083 17.3833 5.61667 17.7 5.8 18H2ZM4 14H5.1C5.23333 13.1833 5.525 12.4292 5.975 11.7375C6.425 11.0458 7 10.4667 7.7 10H4V14ZM4 8H8V4H4V8Z" fill="currentColor"/>
</svg>
